<svg width="16" height="16" viewBox="0 0 16 16" fill="none" xmlns="http://www.w3.org/2000/svg">
<path d="M8 0.387695C6.94943 0.387695 5.90914 0.594621 4.93853 0.996659C3.96793 1.3987 3.08601 1.98797 2.34315 2.73084C0.842855 4.23113 0 6.26596 0 8.3877C0 11.9237 2.296 14.9237 5.472 15.9877C5.872 16.0517 6 15.8037 6 15.5877C6 15.4037 6 14.8997 6 14.2357C3.784 14.7157 3.312 13.1637 3.312 13.1637C2.944 12.2357 2.424 11.9877 2.424 11.9877C1.696 11.4917 2.48 11.5077 2.48 11.5077C3.28 11.5637 3.704 12.3317 3.704 12.3317C4.4 13.5477 5.576 13.1877 6.032 12.9957C6.104 12.4757 6.312 12.1237 6.536 11.9237C4.76 11.7237 2.896 11.0357 2.896 7.9877C2.896 7.0997 3.2 6.3877 3.72 5.8197C3.64 5.6197 3.36 4.7877 3.8 3.7077C3.8 3.7077 4.472 3.4917 6 4.5237C6.632 4.3477 7.32 4.2597 8 4.2597C8.68 4.2597 9.368 4.3477 10 4.5237C11.528 3.4917 12.2 3.7077 12.2 3.7077C12.64 4.7877 12.36 5.6197 12.28 5.8197C12.8 6.3877 13.104 7.0997 13.104 7.9877C13.104 11.0437 11.232 11.7157 9.448 11.9157C9.736 12.1637 10 12.6517 10 13.3957C10 14.4677 10 15.3317 10 15.5877C10 15.8037 10.128 16.0597 10.536 15.9877C13.712 14.9157 16 11.9237 16 8.3877C16 7.33712 15.7931 6.29683 15.391 5.32623C14.989 4.35562 14.3997 3.47371 13.6569 2.73084C12.914 1.98797 12.0321 1.3987 11.0615 0.996659C10.0909 0.594621 9.05058 0.387695 8 0.387695Z" fill="#333333"/>
</svg>
