<svg width="16" height="16" viewBox="0 0 16 16" fill="none" xmlns="http://www.w3.org/2000/svg">
<path d="M3.35782 2.56866C3.3576 3.01394 3.1805 3.44089 2.86548 3.75559C2.55047 4.07029 2.12334 4.24696 1.67807 4.24673C1.2328 4.24651 0.805847 4.06941 0.491147 3.7544C0.176448 3.43939 -0.000222427 3.01226 2.10167e-07 2.56699C0.000222847 2.12171 0.177321 1.69476 0.492335 1.38006C0.807349 1.06536 1.23447 0.888694 1.67975 0.888916C2.12502 0.889139 2.55197 1.06624 2.86667 1.38125C3.18137 1.69626 3.35804 2.12339 3.35782 2.56866ZM3.40819 5.48997H0.0503674V15.9999H3.40819V5.48997ZM8.71354 5.48997H5.37251V15.9999H8.67996V10.4847C8.67996 7.41232 12.6842 7.1269 12.6842 10.4847V15.9999H16V9.34306C16 4.16363 10.0735 4.3567 8.67996 6.90025L8.71354 5.48997Z" fill="#333333"/>
</svg>
