<svg width="360" height="291" viewBox="0 0 360 291" fill="none" xmlns="http://www.w3.org/2000/svg">
<g clip-path="url(#clip0_1205_2510)">
<path d="M325.071 0.74292H35.6039C29.8052 0.74292 25.082 5.41929 25.082 11.218V210.571H335.593V11.218C335.593 5.41929 330.87 0.74292 325.071 0.74292Z" fill="#EED2FF"/>
<path d="M324.696 5.13867H35.9777C32.3769 5.13867 29.4775 8.03802 29.4775 11.6388V207.625H331.197V11.6388C331.197 8.03802 328.297 5.13867 324.696 5.13867Z" fill="#605ACD"/>
<path d="M40.3267 19.6357H320.347V200.658H40.3267V19.6357Z" fill="#FFFADE"/>
<path d="M181.927 13.2755C181.927 14.164 181.226 14.8655 180.337 14.8655C179.449 14.8655 178.747 14.164 178.747 13.2755C178.747 12.387 179.449 11.6855 180.337 11.6855C181.226 11.7323 181.927 12.4338 181.927 13.2755Z" fill="#EDBAFF"/>
<path d="M75.4458 29.6431H103.504V34.6H75.4458V29.6431Z" fill="#FFFADE"/>
<path d="M50.1001 29.6431H61.6507V34.6H50.1001V29.6431ZM50.1001 38.7152H61.6507V43.6722H50.1001V38.7152ZM50.1001 49.4709H61.6507V54.4278H50.1001V49.4709ZM50.1001 60.1797H61.6507V65.1367H50.1001V60.1797ZM50.1001 70.9354H61.6507V75.8923H50.1001V70.9354ZM50.1001 81.6442H61.6507V86.6012H50.1001V81.6442ZM109.303 29.6431H203.438V34.6H109.303V29.6431Z" fill="#C8C5FF"/>
<path d="M85.3604 38.7148H113.419V43.6718H85.3604V38.7148Z" fill="#FFFADE"/>
<path d="M119.216 38.7148H213.352V43.6718H119.216V38.7148Z" fill="#C8C5FF"/>
<path d="M101.914 49.4705H129.972V54.4274H101.914V49.4705Z" fill="#FFFADE"/>
<path d="M135.771 49.4705H229.907V54.4274H135.771V49.4705Z" fill="#C8C5FF"/>
<path d="M118.421 60.1797H146.48V65.1366H118.421V60.1797Z" fill="#FFFADE"/>
<path d="M152.278 60.1797H246.414V65.1366H152.278V60.1797Z" fill="#C8C5FF"/>
<path d="M101.914 70.9348H129.972V75.8918H101.914V70.9348Z" fill="#FFFADE"/>
<path d="M135.771 70.9348H279.476V75.8918H135.771V70.9348Z" fill="#C8C5FF"/>
<path d="M85.3604 81.644H113.419V86.601H85.3604V81.644Z" fill="#FFFADE"/>
<path d="M119.216 81.644H180.336V86.601H119.216V81.644Z" fill="#C8C5FF"/>
<path opacity="0.4" d="M75.4458 95.7197H103.504V100.677H75.4458V95.7197Z" fill="#FFFADE"/>
<path opacity="0.4" d="M50.1001 95.7197H61.6507V100.677H50.1001V95.7197ZM50.1001 104.792H61.6507V109.749H50.1001V104.792ZM50.1001 115.548H61.6507V120.504H50.1001V115.548ZM50.1001 126.256H61.6507V131.213H50.1001V126.256ZM50.1001 137.012H61.6507V141.969H50.1001V137.012ZM50.1001 147.721H61.6507V152.678H50.1001V147.721ZM109.303 95.7197H203.438V100.677H109.303V95.7197Z" fill="#C8C5FF"/>
<path opacity="0.4" d="M85.3604 104.792H113.419V109.749H85.3604V104.792Z" fill="#FFFADE"/>
<path opacity="0.4" d="M119.216 104.792H213.352V109.749H119.216V104.792Z" fill="#C8C5FF"/>
<path opacity="0.4" d="M101.914 115.548H129.972V120.505H101.914V115.548Z" fill="#FFFADE"/>
<path opacity="0.4" d="M135.771 115.548H229.907V120.505H135.771V115.548Z" fill="#C8C5FF"/>
<path opacity="0.4" d="M75.4458 161.75H103.504V166.707H75.4458V161.75Z" fill="#FFFADE"/>
<path opacity="0.4" d="M50.1001 161.75H61.6507V166.707H50.1001V161.75ZM50.1001 170.869H61.6507V175.826H50.1001V170.869ZM50.1001 181.578H61.6507V186.535H50.1001V181.578ZM109.303 161.75H203.438V166.707H109.303V161.75Z" fill="#C8C5FF"/>
<path opacity="0.4" d="M85.3604 170.869H113.419V175.826H85.3604V170.869Z" fill="#FFFADE"/>
<path opacity="0.4" d="M119.216 170.869H213.352V175.826H119.216V170.869Z" fill="#C8C5FF"/>
<path opacity="0.4" d="M101.914 181.578H129.972V186.535H101.914V181.578Z" fill="#FFFADE"/>
<path opacity="0.4" d="M135.771 181.578H229.907V186.535H135.771V181.578Z" fill="#C8C5FF"/>
<path opacity="0.4" d="M118.421 126.257H146.48V131.214H118.421V126.257Z" fill="#FFFADE"/>
<path opacity="0.4" d="M152.278 126.257H295.983V131.214H152.278V126.257Z" fill="#C8C5FF"/>
<path opacity="0.4" d="M101.914 137.012H129.972V141.969H101.914V137.012Z" fill="#FFFADE"/>
<path opacity="0.4" d="M135.771 137.012H229.907V141.969H135.771V137.012Z" fill="#C8C5FF"/>
<path opacity="0.4" d="M85.3604 147.721H113.419V152.678H85.3604V147.721Z" fill="#FFFADE"/>
<path opacity="0.4" d="M119.216 147.721H213.352V152.678H119.216V147.721Z" fill="#C8C5FF"/>
<path d="M356.215 207.017H4.45849C2.44765 207.017 0.76416 208.654 0.76416 210.711V215.481C0.76416 217.492 2.40089 219.176 4.45849 219.176H356.261C358.272 219.176 359.956 217.539 359.956 215.481V210.711C359.909 208.654 358.272 207.017 356.215 207.017Z" fill="#B0CEFF"/>
<path d="M210.499 212.302H150.174C149.379 212.302 148.724 212.956 148.724 213.751C148.724 214.546 149.379 215.201 150.174 215.201H210.546C211.341 215.201 211.995 214.546 211.995 213.751C211.949 212.956 211.294 212.302 210.499 212.302Z" fill="#FFF0FD"/>
<path d="M260.115 259.533L260.069 267.062C260.069 267.062 261.004 271.878 261.799 277.022C262.547 282.166 263.155 287.638 262.36 288.9C260.817 291.426 257.777 288.9 257.263 286.375C256.748 283.85 256 268.091 256 268.091L255.486 257.943L260.115 259.533ZM267.785 258.504L266.616 265.285C266.616 265.285 264.324 283.803 265.587 286.609C266.849 289.415 270.918 288.152 270.684 284.318C270.45 280.53 271.432 267.062 271.432 267.062L273.724 258.925L267.785 258.504Z" fill="#EED2FF"/>
<path d="M264.652 175.966L264.09 184.29L285.602 194.672C289.483 196.776 291.354 201.312 290.091 205.521L275.22 260.842L267.832 258.504L274.332 207.625C274.799 204.492 272.648 201.593 269.515 201.078L261.846 199.862L253.709 191.538L263.155 200.003C265.447 202.06 266.569 205.1 266.148 208.14L260.116 259.533L253.428 261.216L250.436 210.665C250.202 207.438 248.051 204.726 245.011 203.744L231.777 199.535C229.672 198.272 228.363 195.981 228.27 193.502L228.831 175.686L264.652 175.966Z" fill="#4C63D2"/>
<path d="M227.427 194.625L230.981 125.508C230.981 125.508 245.665 124.62 250.061 124.62C252.446 124.62 256.514 125.742 259.741 126.771C262.781 127.753 265.259 127.659 266.755 130.465L290.839 176.668L276.015 178.07L271.058 172.459L273.583 168.671L264.558 147.44L266.335 186.02L227.427 194.625Z" fill="#EED2FF"/>
<path opacity="0.08" d="M264.885 139.023L280.878 167.876L275.921 173.721C275.921 173.721 273.91 174.142 271.993 173.488L271.105 172.459L273.63 168.671L264.604 147.44L264.885 139.023Z" fill="#FAC9D5"/>
<path d="M250.67 145.523C245.806 145.523 236.921 132.85 236.921 127.987C236.921 127.005 237.108 126.069 237.389 125.181C241.925 124.947 247.583 124.667 250.062 124.667C251.138 124.667 252.54 124.9 254.084 125.228C254.364 126.116 254.551 127.005 254.551 127.987C254.505 132.85 255.533 145.523 250.67 145.523Z" fill="#EED2FF"/>
<path opacity="0.08" d="M229.204 137.48L227.427 195.046L251.183 189.341L229.204 137.48Z" fill="#FAC9D5"/>
<path d="M251.512 117.559C251.091 118.4 248.191 129.717 248.191 129.717C248.191 129.717 247.163 131.588 244.684 131.354C242.206 131.167 241.177 127.66 241.177 127.66L245.526 113.443L251.512 117.559Z" fill="#FAC9D5"/>
<path d="M236.266 110.591C236.266 118.4 244.543 127.051 252.353 127.051C260.162 127.051 264.511 118.4 264.511 110.591C264.511 102.781 258.198 96.468 250.389 96.468C242.579 96.4213 236.266 102.781 236.266 110.591Z" fill="#FAC9D5"/>
<path d="M253.268 127.415C261.935 126.003 267.816 117.831 266.403 109.165C264.99 100.498 256.819 94.6175 248.152 96.0304C239.485 97.4433 233.605 105.614 235.018 114.281C236.431 122.948 244.602 128.828 253.268 127.415Z" fill="#FAC9D5"/>
<path d="M247.723 187.984C248.331 187.797 253.568 185.225 257.263 185.225C260.957 185.225 265.493 189.154 265.493 189.154C265.493 189.154 266.101 191.211 263.623 190.79C261.144 190.369 263.95 192.333 263.95 192.333C263.95 192.333 263.81 192.427 260.91 192.848C258.011 193.269 246.788 192.661 246.788 192.661L247.723 187.984Z" fill="#FAC9D5"/>
<path d="M230.982 125.555L228.971 171.009L247.677 187.938L246.788 192.708L220.46 178.632C217.935 177.276 216.486 174.47 216.86 171.617L221.676 136.825C222.05 132.476 224.716 128.642 228.597 126.724L230.982 125.555ZM245.806 196.589H293.412V193.082H245.806C244.824 193.082 244.076 193.877 244.076 194.812C244.029 195.794 244.824 196.589 245.806 196.589Z" fill="#EED2FF"/>
<path d="M258.854 196.589H304.775C306.786 196.589 308.563 195.233 309.124 193.269L317.215 162.732C317.963 159.879 315.812 157.12 312.866 157.12H272.789C270.778 157.12 269.001 158.477 268.44 160.441L258.854 196.589Z" fill="#FFFADE"/>
<path opacity="0.22" d="M258.854 196.589H304.775C306.786 196.589 308.563 195.233 309.124 193.269L317.215 162.732C317.963 159.879 315.812 157.12 312.866 157.12H272.789C270.778 157.12 269.001 158.477 268.44 160.441L258.854 196.589Z" fill="#4C63D2"/>
<path d="M285.882 179.567C285.368 181.578 286.631 183.168 288.688 183.168C290.746 183.168 292.803 181.531 293.318 179.567C293.832 177.556 292.57 175.966 290.512 175.966C288.454 175.919 286.397 177.556 285.882 179.567Z" fill="#EED2FF"/>
<path d="M250.716 95.8137C258.9 95.8137 265.587 101.987 266.523 109.89C263.763 111.947 260.163 112.836 256.749 112.275C252.727 111.573 249.126 108.814 247.443 105.12C247.583 106.897 247.677 108.674 247.396 110.404C247.116 112.134 246.367 113.864 244.964 114.987C244.871 113.771 244.731 112.462 244.123 111.386C243.468 110.31 242.112 109.562 240.99 110.03C240.148 110.357 239.633 111.199 239.493 112.087C239.353 112.976 239.587 113.864 239.914 114.706C240.428 116.016 241.177 117.231 242.112 118.214C240.241 118.494 238.231 118.728 236.36 118.541C235.378 116.436 234.77 114.145 234.77 111.667C234.77 102.922 241.925 95.8137 250.716 95.8137Z" fill="#2A77F4"/>
<path d="M237.015 114.332C237.015 116.997 239.166 119.148 241.831 119.148C244.497 119.148 246.648 116.997 246.648 114.332C246.648 111.666 244.497 109.515 241.831 109.515C239.213 109.515 237.015 111.666 237.015 114.332ZM267.785 258.504L266.943 263.601L271.994 265.191L273.397 260.188L267.785 258.504ZM260.069 265.191L255.86 265.986L255.627 260.655L260.116 259.533L260.069 265.191Z" fill="#FAC9D5"/>
<path d="M241.831 103.155C245.756 103.155 248.939 99.973 248.939 96.0473C248.939 92.1216 245.756 88.9392 241.831 88.9392C237.905 88.9392 234.723 92.1216 234.723 96.0473C234.723 99.973 237.905 103.155 241.831 103.155Z" fill="#2A77F4"/>
</g>
<defs>
<clipPath id="clip0_1205_2510">
<rect width="360" height="290.811" fill="white" transform="translate(0 0.0944824)"/>
</clipPath>
</defs>
</svg>
