<svg width="360" height="299" viewBox="0 0 360 299" fill="none" xmlns="http://www.w3.org/2000/svg">
<g clip-path="url(#clip0_1205_2569)">
<path d="M32.7967 202.614C32.5916 201.531 32.2692 200.477 31.8297 199.482C31.5659 198.867 31.6538 198.164 32.0934 197.637L33.8809 195.442L31.185 192.163L28.6942 193.48C28.1081 193.802 27.3755 193.744 26.8187 193.363C25.9103 192.748 24.9433 192.221 23.9176 191.811C23.3023 191.577 22.8627 190.991 22.8041 190.318L22.5404 187.508L18.3206 187.098L17.5001 189.82C17.295 190.464 16.7675 190.933 16.0935 191.05C15.0093 191.255 13.9543 191.577 12.958 192.016C12.3426 192.28 11.6393 192.192 11.1119 191.753L8.91409 189.967L5.63206 192.66L6.95074 195.149C7.27308 195.734 7.21447 196.466 6.83352 197.023C6.21814 197.93 5.69067 198.896 5.28042 199.921C5.04599 200.536 4.45991 200.975 3.78592 201.033L0.972761 201.297L0.5625 205.513L3.28776 206.333C3.93244 206.538 4.4013 207.065 4.51851 207.738C4.72364 208.821 5.04599 209.875 5.48555 210.871C5.74928 211.485 5.66137 212.217 5.22181 212.715L3.43428 214.911L6.13022 218.19L8.62105 216.872C9.20712 216.55 9.93973 216.609 10.4965 216.989C11.4049 217.604 12.3719 218.131 13.3976 218.541C14.013 218.775 14.4525 219.361 14.5111 220.034L14.7748 222.845L18.9946 223.255L19.8151 220.532C20.0202 219.888 20.5477 219.419 21.2217 219.302C22.3059 219.097 23.3609 218.775 24.3572 218.336C24.9726 218.073 25.6759 218.16 26.2033 218.6L28.4011 220.386L31.6832 217.692L30.3645 215.203C30.0421 214.618 30.1007 213.886 30.4817 213.33C31.0971 212.422 31.6245 211.456 32.0348 210.431C32.2692 209.817 32.8553 209.377 33.5293 209.319L36.3425 209.055L36.7527 204.839L34.0275 204.02C33.4121 203.815 32.9139 203.259 32.7967 202.614ZM17.6173 215.906C11.698 215.321 7.36099 210.051 7.94706 204.137C8.53314 198.223 13.8078 193.89 19.7272 194.475C25.6466 195.061 29.9835 200.331 29.3975 206.245C28.8114 212.159 23.5367 216.462 17.6173 215.906Z" fill="#B0CEFF"/>
<path d="M11.5217 204.459C11.9027 200.507 15.4191 197.638 19.3751 198.018C23.3311 198.399 26.2029 201.912 25.822 205.864C25.441 209.817 21.9246 212.686 17.9685 212.305C14.0125 211.925 11.1408 208.412 11.5217 204.459Z" fill="#B0CEFF"/>
<path opacity="0.1" d="M163.99 298.086C237.223 298.086 296.59 293.289 296.59 287.371C296.59 281.453 237.223 276.656 163.99 276.656C90.7571 276.656 31.3901 281.453 31.3901 287.371C31.3901 293.289 90.7571 298.086 163.99 298.086Z" fill="#EDBAFF"/>
<path d="M123.785 253.205C123.785 255.694 125.807 257.714 128.298 257.714H290.436C292.927 257.714 294.949 255.694 294.949 253.205V113.73H123.814V253.205H123.785Z" fill="#FFFADE"/>
<path d="M174.715 195.617C175.477 198.252 176.532 200.799 177.88 203.229C178.701 204.693 178.642 206.508 177.704 207.913L173.777 213.798L181.309 221.322L187.199 217.399C188.605 216.462 190.422 216.404 191.887 217.223C194.29 218.57 196.84 219.624 199.506 220.385C201.118 220.854 202.349 222.171 202.7 223.84L204.078 230.779H214.715L216.121 223.811C216.444 222.171 217.675 220.825 219.316 220.356C221.953 219.595 224.502 218.541 226.935 217.194C228.4 216.374 230.217 216.433 231.623 217.37L237.513 221.293L245.044 213.769L241.118 207.884C240.18 206.479 240.121 204.664 240.942 203.2C242.29 200.799 243.345 198.252 244.107 195.588C244.575 193.978 245.894 192.748 247.564 192.397L254.509 191.021V180.393L247.535 178.988C245.894 178.666 244.546 177.436 244.077 175.797C243.315 173.162 242.26 170.615 240.912 168.185C240.092 166.721 240.151 164.906 241.088 163.5L245.015 157.616L237.484 150.092L231.594 154.015C230.187 154.951 228.37 155.01 226.905 154.19C224.502 152.844 221.953 151.79 219.286 151.028C217.675 150.56 216.444 149.243 216.092 147.574L214.715 140.635H204.078L202.671 147.603C202.349 149.243 201.118 150.589 199.477 151.058C196.84 151.819 194.29 152.873 191.858 154.22C190.393 155.039 188.576 154.981 187.169 154.044L181.279 150.121L173.748 157.645L177.675 163.53C178.613 164.935 178.671 166.75 177.851 168.214C176.503 170.615 175.448 173.162 174.686 175.826C174.217 177.436 172.898 178.666 171.228 179.017L164.283 180.393V191.021L171.257 192.426C172.928 192.748 174.276 193.978 174.715 195.617ZM209.352 158.699C224.268 158.699 236.37 170.79 236.37 185.692C236.37 200.594 224.268 212.686 209.352 212.686C194.437 212.686 182.334 200.594 182.334 185.692C182.334 170.82 194.437 158.728 209.352 158.699ZM123.785 91.2157V104.712H294.919V91.2157C294.919 88.7271 292.897 86.707 290.407 86.707H128.269C125.778 86.707 123.785 88.7271 123.785 91.2157ZM168.825 91.2157H177.821V100.233H168.825V91.2157ZM150.803 91.2157H159.8V100.233H150.803V91.2157ZM132.781 91.2157H141.778V100.233H132.781V91.2157Z" fill="#4C63D2"/>
<path d="M227.374 185.721C227.374 195.646 219.316 203.727 209.352 203.727C199.389 203.727 191.331 195.676 191.331 185.721C191.331 175.797 199.389 167.716 209.352 167.716C219.286 167.716 227.374 175.767 227.374 185.721ZM213.865 10.2357C213.865 7.74716 211.843 5.72705 209.352 5.72705H47.2144C44.7236 5.72705 42.7017 7.74716 42.7017 10.2357V23.7323H213.836V10.2357H213.865ZM60.7235 19.2237H51.7272V10.2357H60.7235V19.2237ZM78.7453 19.2237H69.7491V10.2357H78.7453V19.2237ZM96.7672 19.2237H87.7709V10.2357H96.7672V19.2237Z" fill="#4C63D2"/>
<path d="M114.76 91.216C114.76 83.7504 120.796 77.7193 128.269 77.7193H213.836V32.7207H42.7017V172.196C42.7017 174.684 44.7236 176.705 47.2144 176.705H114.76V91.216ZM150.803 55.2346H159.8V64.2227H150.803V55.2346ZM132.782 55.2346H141.778V64.2227H132.782V55.2346ZM114.76 55.2346H123.756V64.2227H114.76V55.2346ZM96.7672 163.208H60.7235V154.22H96.7672V163.208ZM96.7672 145.203H60.7235V136.215H96.7672V145.203ZM96.7672 127.227H60.7235V118.239H96.7672V127.227ZM96.7672 109.221H60.7235V100.233H96.7672V109.221ZM96.7672 91.216H60.7235V82.2279H96.7672V91.216ZM96.7672 64.2227V55.2346H105.763V64.2227H96.7672Z" fill="#FFFADE"/>
<path d="M150.012 217.663L150.188 212.92L153.557 213.945L154.202 219.859C154.202 219.859 150.979 220.063 150.012 217.663Z" fill="#B0CEFF"/>
<path d="M150.305 217.692C151.096 218.014 152.415 218.306 154.056 217.926L153.851 216.579C153.851 216.579 154.788 217.135 155.023 218.365C155.257 219.565 155.316 219.243 156.84 220.18C158.393 221.117 158.276 223.225 158.276 223.225L146.789 222.932C146.789 222.932 146.466 220.619 148.547 218.16C148.957 217.633 149.69 217.428 150.305 217.692Z" fill="#4C63D2"/>
<path d="M131.756 147.955C131.756 147.955 130.261 153.781 132.371 157.44C134.481 161.1 138.291 152.99 138.291 152.99C138.291 152.99 137.617 145.203 131.756 147.955Z" fill="#4C63D2"/>
<path d="M130.701 120.317C130.701 120.317 122.965 130.827 121.675 137.18C120.357 143.533 121.763 157.411 121.763 157.411H124.928C124.928 157.411 126.598 139.698 127.653 137.18C128.708 134.604 135.565 122.718 135.565 122.718L130.701 120.317Z" fill="#FAC9D5"/>
<path d="M129.383 222.698H158.745V226.065H129.383V222.698ZM123.112 245.944H154.672V249.311H123.112V245.944ZM120.269 268.429H151.829V271.796H120.269V268.429Z" fill="#605ACD"/>
<path d="M117.103 290.796H113.587L139.491 169.063H141.455L117.103 290.796ZM153.821 290.796H150.305L170.847 165.637L172.575 166.457L153.821 290.796Z" fill="#605ACD"/>
<path d="M146.701 290.796L165.602 169.268L139.492 169.063L113.587 290.796H109.543L135.858 165.637H170.847L151.419 290.796H146.115" fill="#FFF0FD"/>
<path d="M134.833 217.663L135.008 212.92L138.378 213.945L139.023 219.859C138.994 219.859 135.8 220.063 134.833 217.663Z" fill="#B0CEFF"/>
<path d="M168.092 110.655C168.092 110.655 176.444 110.04 177.44 106.176C178.437 102.311 178.261 91.8887 178.261 91.8887H181.162C181.162 91.8887 183.155 101.579 183.037 106.176C182.92 110.772 177.323 118.618 168.092 118.121C158.891 117.623 168.092 110.655 168.092 110.655Z" fill="#FAC9D5"/>
<path d="M141.045 110.158C141.045 110.158 136.21 110.655 134.217 112.763C133.25 113.788 127.243 121.224 127.477 122.835L134.54 127.226L140.312 119.234L141.045 110.158Z" fill="#EDBAFF"/>
<path d="M133.484 145.963C133.484 145.963 131.404 152.112 133.367 158.845C135.33 165.579 135.33 179.163 135.155 182.706C134.979 186.248 131.668 196.495 134.481 214.588H138.818C138.818 214.588 141.455 195.617 142.979 187.537C144.415 179.954 146.232 161.041 146.232 161.041C146.232 161.041 151.682 178.988 150.774 183.613C149.777 188.708 149.66 214.559 149.66 214.559H154.026C154.026 214.559 158.92 192.309 159.213 186.336C159.535 180.364 158.861 146.871 158.861 146.871C158.861 146.871 144.327 137.005 133.484 145.963Z" fill="#4A4A51"/>
<path d="M148.371 98.4761L143.946 112.002L151.946 113.583L153.704 99.5593L148.371 98.4761Z" fill="#B0CEFF"/>
<path d="M152.913 109.396C152.913 109.396 158.334 110.509 158.891 117.594C159.448 124.679 160.21 154.893 160.21 157.498C160.034 158.699 138.965 162.71 132.694 156.62C131.111 155.068 136.298 128.778 135.565 121.868C134.803 114.988 138.906 106.234 152.913 109.396Z" fill="#EDBAFF"/>
<path d="M159.213 123.567C159.213 123.567 161.381 118.619 168.092 118.121C168.092 118.121 169.704 113.525 168.092 110.656C168.092 110.656 155.931 108.167 151.301 109.104C146.671 110.041 159.213 123.567 159.213 123.567Z" fill="#EDBAFF"/>
<path d="M181.133 94.4943C181.133 94.4943 182.042 89.6343 180.43 86.8823C179.463 85.2428 178.408 84.4816 177.353 84.7744C176.65 84.9793 176.357 86.2089 176.532 86.9116C176.767 87.8192 177.529 90.3077 177.939 91.0103C177.939 91.0103 177.206 91.0103 176.445 89.3708C175.712 87.7606 175.155 90.132 175.741 91.2446C176.62 92.8548 179.521 97.2756 181.133 94.4943Z" fill="#FAC9D5"/>
<path d="M135.097 217.692C135.888 218.014 137.206 218.306 138.847 217.926L138.642 216.579C138.642 216.579 139.58 217.135 139.814 218.365C140.049 219.565 140.107 219.243 141.631 220.18C143.184 221.117 143.067 223.225 143.067 223.225L131.58 222.932C131.58 222.932 131.258 220.619 133.338 218.16C133.778 217.633 134.481 217.428 135.097 217.692Z" fill="#4C63D2"/>
<path d="M159.712 96.4562C159.507 94.7581 163.199 93.6163 156.137 88.6392C152.532 86.1214 146.261 87.2339 144.327 91.0399C142.393 94.8459 143.419 95.2265 141.924 95.49C140.43 95.7828 142.012 107.552 151.038 107.406C160.093 107.259 159.712 96.4562 159.712 96.4562Z" fill="#4A4A51"/>
<path d="M132.254 143.855H159.741C160.855 143.855 161.763 144.675 161.88 145.758C162.349 149.887 162.847 159.255 158.012 159.928C151.8 160.807 149.807 154.102 149.807 147.866L131.756 147.954C131.756 147.954 131.141 144.968 132.254 143.855Z" fill="#FFF0F4"/>
<path d="M124.723 155.771C124.723 155.771 124.196 162.006 126.218 163.705C128.24 165.432 122.643 166.193 121.265 163.031C119.888 159.869 121.764 155.771 121.764 155.771H124.723Z" fill="#FAC9D5"/>
<path d="M124.196 156.591C124.196 156.591 126.071 156.913 126.775 158.933C127.185 160.075 127.419 161.305 127.536 162.154C127.624 162.71 126.98 163.091 126.511 162.739C126.042 162.388 125.602 161.861 125.661 160.954C125.807 159.051 123.522 159.607 123.522 159.607C123.522 159.607 122.76 157.353 124.196 156.591Z" fill="#FAC9D5"/>
<path d="M154.877 148.159H153.441V143.914C153.441 143.68 153.646 143.475 153.88 143.475H154.467C154.701 143.475 154.906 143.68 154.906 143.914V148.159H154.877ZM157.016 148.159H155.58V145.349C155.58 145.115 155.785 144.91 156.02 144.91H156.606C156.84 144.91 157.045 145.115 157.045 145.349V148.159H157.016ZM159.741 148.159H157.749V142.041C157.749 141.719 158.012 141.455 158.335 141.455H159.155C159.478 141.455 159.741 141.719 159.741 142.041V148.159Z" fill="#FFF0FD"/>
<path opacity="0.32" d="M150.276 148.16H161.353V149.097H150.276V148.16Z" fill="#4A4A51"/>
<path d="M59.4928 233.003C58.9653 231.657 58.3206 230.339 57.5001 229.139C57.002 228.407 56.9727 227.441 57.3829 226.68L59.1998 223.401L54.9214 219.77L51.991 222.112C51.2877 222.669 50.35 222.786 49.5295 222.405C48.2108 221.82 46.8042 221.351 45.3976 221.088C44.5185 220.912 43.8152 220.268 43.5808 219.419L42.5552 215.847L36.9582 216.316L36.5186 220.034C36.4307 220.912 35.8153 221.673 34.9948 221.995C33.6468 222.522 32.3281 223.166 31.1267 223.986C30.3941 224.484 29.4271 224.513 28.6652 224.103L25.3831 222.288L21.7495 226.563L24.0938 229.49C24.6505 230.193 24.7678 231.13 24.3868 231.949C23.8007 233.267 23.3319 234.672 23.0681 236.078C22.8923 236.956 22.2476 237.658 21.3978 237.893L17.7935 238.917L18.2623 244.509L21.9839 244.948C22.863 245.036 23.6249 245.651 23.9473 246.471C24.4747 247.818 25.1194 249.135 25.9399 250.335C26.4381 251.067 26.4674 252.033 26.0571 252.795L24.2403 256.074L28.5187 259.704L31.449 257.362C32.1523 256.806 33.09 256.688 33.9106 257.069C35.2292 257.655 36.6358 258.123 38.0424 258.387C38.9215 258.562 39.6248 259.206 39.8592 260.055L40.8849 263.656L46.4819 263.188L46.9214 259.47C47.0094 258.591 47.6247 257.83 48.4452 257.508C49.7932 256.981 51.1119 256.337 52.3134 255.517C53.046 255.02 54.013 254.99 54.7749 255.4L58.0569 257.215L61.6906 252.941L59.3463 250.013C58.7895 249.311 58.6723 248.374 59.0532 247.554C59.6393 246.237 60.1082 244.831 60.3719 243.426C60.5477 242.548 61.1924 241.845 62.0422 241.611L65.6466 240.586L65.1777 234.994L61.4561 234.555C60.577 234.438 59.8151 233.823 59.4928 233.003ZM42.9068 253.936C35.0534 254.581 28.167 248.754 27.493 240.908C26.8483 233.062 32.6798 226.182 40.5332 225.509C48.3866 224.864 55.273 230.691 55.947 238.537C56.5917 246.383 50.7602 253.263 42.9068 253.936Z" fill="#4C63D2"/>
<path d="M32.2399 240.528C31.8003 235.287 35.6977 230.691 40.9138 230.252C46.1592 229.812 50.7599 233.706 51.1994 238.918C51.639 244.158 47.7416 248.755 42.5255 249.194C37.2801 249.633 32.6794 245.768 32.2399 240.528Z" fill="#4C63D2"/>
<path d="M105.119 194.475C103.712 193.216 102.188 192.104 100.518 191.196C99.4923 190.64 98.9062 189.557 98.9356 188.415L99.0821 183.555L91.9905 181.916L89.9979 186.336C89.529 187.39 88.5034 188.093 87.3312 188.152C85.4558 188.239 83.5804 188.561 81.7635 189.088C80.65 189.41 79.4485 189.088 78.6573 188.239L75.346 184.697L69.1629 188.532L70.8625 193.099C71.2728 194.183 71.0383 195.412 70.2471 196.261C68.987 197.667 67.8735 199.189 66.9651 200.858C66.4083 201.882 65.3241 202.468 64.1812 202.439L59.3168 202.292L57.6758 209.377L62.1007 211.368C63.1556 211.837 63.8589 212.861 63.9175 214.032C64.0054 215.906 64.3277 217.78 64.8259 219.595C65.1482 220.707 64.8259 221.908 63.9761 222.698L60.4303 226.007L64.2691 232.184L68.8405 230.457C69.9248 230.047 71.1262 230.281 72.0053 231.071C73.4119 232.33 74.9357 233.443 76.606 234.35C77.6317 234.907 78.2471 235.99 78.1885 237.132L78.0419 241.992L85.1335 243.631L87.1261 239.21C87.595 238.156 88.6206 237.454 89.7928 237.395C91.6682 237.307 93.5436 236.985 95.3605 236.488C96.474 236.166 97.6755 236.488 98.4667 237.337L101.778 240.879L107.961 237.044L106.262 232.477C105.851 231.394 106.086 230.164 106.877 229.315C108.137 227.91 109.25 226.387 110.159 224.718C110.716 223.694 111.8 223.108 112.943 223.137L117.807 223.284L119.448 216.199L115.023 214.208C113.968 213.74 113.265 212.715 113.207 211.544C113.119 209.67 112.796 207.796 112.298 205.981C111.976 204.869 112.298 203.668 113.148 202.878L116.694 199.569L112.855 193.392L108.283 195.09C107.199 195.471 105.998 195.237 105.119 194.475ZM98.3788 228.466C89.7048 233.882 78.2764 231.218 72.8552 222.552C67.4339 213.886 70.1006 202.468 78.7745 197.052C87.4485 191.635 98.8769 194.3 104.298 202.966C109.69 211.661 107.053 223.05 98.3788 228.466Z" fill="#E8E7FF"/>
<path d="M78.1004 219.273C74.496 213.505 76.2542 205.893 82.0564 202.292C87.8585 198.691 95.4482 200.448 99.0526 206.244C102.657 212.012 100.899 219.624 95.0966 223.225C89.3237 226.826 81.7047 225.069 78.1004 219.273Z" fill="#E8E7FF"/>
<path d="M310.157 58.191C309.015 59.6548 308.077 61.2358 307.315 62.9338C306.846 63.9585 305.85 64.6611 304.707 64.7197L299.93 64.9539L298.875 72.0097L303.359 73.6199C304.414 74.0005 305.176 74.9666 305.322 76.0791C305.557 77.9236 305.996 79.7095 306.67 81.4368C307.081 82.4908 306.846 83.6911 306.084 84.5402L302.89 88.0534L307.139 93.7917L311.476 91.7716C312.502 91.3031 313.703 91.4202 314.612 92.1229C316.077 93.2647 317.659 94.2015 319.359 94.9627C320.384 95.4312 321.088 96.4266 321.146 97.5684L321.381 102.341L328.443 103.394L330.055 98.9151C330.436 97.8612 331.403 97.1 332.516 96.9536C334.362 96.7194 336.15 96.2802 337.879 95.6068C338.934 95.197 340.135 95.4312 340.985 96.1924L344.502 99.4128L350.245 95.1677L348.223 90.8347C347.754 89.81 347.871 88.6097 348.575 87.7021C349.718 86.2382 350.655 84.6573 351.417 82.9592C351.886 81.9345 352.882 81.2319 354.025 81.1733L358.802 80.9391L359.857 73.8834L355.373 72.2731C354.318 71.8925 353.556 70.9264 353.41 69.8139C353.175 67.9694 352.736 66.1836 352.062 64.4562C351.652 63.4022 351.886 62.2019 352.648 61.3529L355.871 57.8396L351.622 52.1014L347.285 54.1215C346.26 54.5899 345.058 54.4728 344.15 53.7701C342.685 52.6283 341.102 51.6915 339.403 50.9303C338.377 50.4619 337.674 49.4664 337.615 48.3246L337.381 43.5525L330.318 42.4985L328.707 46.9779C328.326 48.0319 327.359 48.7931 326.245 48.9395C324.399 49.1737 322.612 49.6128 320.883 50.2862C319.828 50.6961 318.626 50.4619 317.776 49.7007L314.26 46.4802L308.516 50.7253L310.538 55.0583C310.978 56.083 310.861 57.2834 310.157 58.191ZM343.945 62.1433C349.893 70.1945 348.194 81.5832 340.135 87.5264C332.077 93.4696 320.678 91.7716 314.729 83.7204C308.78 75.6693 310.48 64.2806 318.538 58.3373C326.626 52.3941 337.996 54.0922 343.945 62.1433Z" fill="#4C63D2"/>
<path d="M336.531 82.6664C331.139 86.6481 323.578 85.5063 319.593 80.1193C315.608 74.7324 316.751 67.179 322.142 63.1973C327.534 59.2156 335.095 60.3574 339.08 65.7444C343.065 71.1021 341.923 78.6848 336.531 82.6664Z" fill="#4C63D2"/>
<path d="M237.836 34.5356C237.396 36.907 237.25 39.3077 237.338 41.7084C237.396 43.1723 236.664 44.5775 235.374 45.3095L230.012 48.3835L232.971 57.1666L239.125 56.3761C240.59 56.2005 242.026 56.8446 242.847 58.0449C244.224 60.0358 245.806 61.8509 247.565 63.4612C248.649 64.4566 249.088 65.979 248.708 67.3843L247.096 73.3275L255.389 77.4555L259.198 72.5663C260.107 71.3952 261.572 70.8389 263.008 71.1024C265.381 71.5416 267.784 71.7172 270.187 71.6001C271.652 71.5416 273.059 72.2735 273.792 73.5617L276.868 78.9194L285.66 75.9624L284.868 69.8142C284.693 68.3504 285.337 66.9158 286.539 66.0961C288.531 64.7493 290.348 63.1391 291.96 61.3825C292.956 60.2992 294.48 59.8601 295.887 60.2407L301.865 61.8509L305.996 53.5363L301.073 49.7303C299.901 48.8227 299.345 47.3589 299.608 45.9243C300.048 43.5529 300.224 41.1522 300.106 38.7514C300.048 37.2876 300.81 35.8823 302.07 35.1504L307.432 32.0763L304.473 23.2932L298.319 24.0837C296.854 24.2594 295.418 23.6153 294.597 22.4149C293.249 20.4241 291.638 18.6089 289.879 16.9987C288.795 16.0033 288.356 14.4809 288.737 13.0756L290.348 7.10312L282.085 2.97508L278.275 7.86432C277.367 9.03539 275.901 9.59166 274.466 9.32816C272.092 8.88901 269.689 8.71335 267.286 8.83046C265.821 8.88901 264.414 8.15709 263.682 6.8689L260.605 1.51123L251.814 4.4682L252.605 10.6163C252.781 12.0802 252.136 13.5148 250.935 14.3345C248.942 15.6813 247.125 17.2915 245.513 19.0481C244.517 20.1313 242.993 20.5705 241.587 20.1899L235.609 18.5797L231.477 26.8943L236.371 30.7003C237.572 31.6079 238.129 33.0717 237.836 34.5356ZM279.242 19.1066C290.905 24.9035 295.652 39.0442 289.879 50.6964C284.077 62.3486 269.923 67.0915 258.261 61.3239C246.598 55.5271 241.85 41.3864 247.623 29.7342C253.425 18.082 267.579 13.3391 279.242 19.1066Z" fill="#E8E7FF"/>
<path d="M282.817 47.2124C278.949 54.9707 269.513 58.1619 261.747 54.2974C253.982 50.4328 250.788 41.0057 254.656 33.2473C258.524 25.4889 267.96 22.2977 275.725 26.1623C283.52 29.9975 286.685 39.4247 282.817 47.2124Z" fill="#E8E7FF"/>
</g>
<defs>
<clipPath id="clip0_1205_2569">
<rect width="360" height="297.342" fill="white" transform="translate(0 0.829102)"/>
</clipPath>
</defs>
</svg>
